<?xml version="1.0" standalone="no"?>
<!DOCTYPE svg PUBLIC "-//W3C//DTD SVG 20010904//EN"
 "http://www.w3.org/TR/2001/REC-SVG-20010904/DTD/svg10.dtd">
<svg version="1.0" xmlns="http://www.w3.org/2000/svg"
 width="554.000000pt" height="150.000000pt" viewBox="0 0 554.000000 150.000000"
 preserveAspectRatio="xMidYMid meet">

<g transform="translate(0.000000,150.000000) scale(0.100000,-0.100000)"
fill="#0088ff" stroke="none">
<path d="M10 1240 l0 -250 505 0 505 0 0 -252 0 -253 250 250 250 250 0 252 0
253 -755 0 -755 0 0 -250z"/>
<path d="M3860 1190 c-26 -26 -26 -81 -1 -104 29 -26 91 -24 113 4 41 51 8
120 -57 120 -22 0 -43 -8 -55 -20z"/>
<path d="M3213 990 c-90 -19 -169 -76 -203 -146 -28 -57 -30 -151 -5 -212 22
-54 92 -116 158 -139 110 -38 297 -16 376 46 l23 18 -27 41 c-15 23 -29 42
-30 42 -1 0 -29 -12 -61 -27 -106 -48 -251 -30 -311 41 l-26 31 237 3 236 2 0
47 c0 144 -105 247 -263 258 -34 2 -81 0 -104 -5z m164 -121 c34 -13 73 -48
73 -66 0 -10 -35 -13 -165 -13 -132 0 -165 3 -165 13 0 56 170 99 257 66z"/>
<path d="M4403 990 c-57 -12 -96 -33 -128 -72 -24 -28 -27 -39 -23 -85 7 -86
50 -117 209 -152 120 -26 149 -36 149 -55 0 -29 -42 -46 -111 -46 -70 0 -116
14 -160 49 l-26 20 -42 -36 c-41 -34 -41 -36 -24 -55 76 -85 276 -113 391 -56
60 30 92 77 92 135 0 38 -6 51 -33 78 -35 35 -74 49 -218 80 -86 18 -115 34
-106 59 18 47 160 47 246 1 50 -28 52 -28 67 -9 55 70 55 73 -15 108 -78 40
-178 53 -268 36z"/>
<path d="M5153 985 c-111 -31 -177 -102 -196 -209 -19 -115 37 -227 141 -278
38 -18 63 -23 132 -23 73 0 93 4 138 28 30 15 56 27 58 27 2 0 4 -11 4 -25 0
-24 3 -25 55 -25 l55 0 0 255 0 255 -55 0 c-52 0 -55 -1 -55 -24 l0 -25 -53
25 c-69 31 -156 38 -224 19z m194 -125 c77 -34 106 -127 63 -197 -24 -40 -53
-59 -110 -72 -96 -21 -201 31 -219 110 -9 38 5 95 30 125 44 53 159 70 236 34z"/>
<path d="M2290 935 l0 -55 152 0 152 0 -152 -146 -152 -146 0 -54 0 -54 235 0
235 0 0 55 0 55 -152 0 -153 0 153 153 153 154 -3 44 -3 44 -232 3 -233 2 0
-55z"/>
<path d="M3857 983 c-4 -3 -7 -118 -7 -255 l0 -248 60 0 60 0 0 255 0 255 -53
0 c-30 0 -57 -3 -60 -7z"/>
<path d="M257 723 l-247 -248 0 -238 0 -237 755 0 755 0 0 240 0 240 -505 0
-505 0 -2 245 -3 245 -248 -247z"/>
</g>
</svg>
