<svg width="1000" height="500" xmlns="http://www.w3.org/2000/svg">
 <g>
  <title>Layer 1</title>
  <g stroke="null">
   <path stroke="null" d="m227.28148,399.73837l0,-31.96472l18.06702,3.47443c20.15167,4.16931 38.91357,-10.42328 40.30334,-30.57495l4.16931,-45.16754l20.15167,-8.33862c6.94885,-2.77954 9.72839,-11.11816 5.55908,-18.06702l-25.71075,-43.08288c-4.16931,-52.81128 -34.04938,-104.23278 -111.18163,-104.23278c-79.21691,0 -118.13048,58.37036 -118.13048,118.13048c0,25.71075 9.03351,47.94708 22.93121,66.70898c12.50793,17.37213 18.7619,38.21869 18.7619,59.06524l0,33.35449l125.07934,0l0,0.69489z" fill="#595959"/>
   <polygon stroke="null" points="227.28150939941406,399.73828125 227.28150939941406,367.7737121582031 178.6395263671875,358.0451354980469 178.6395263671875,399.73828125 " fill="#4f4f4f"/>
   <circle stroke="null" r="10.42328" cy="250.33805" cx="258.55132" fill="#ffffff"/>
   <path stroke="null" d="m174.47021,121.78429c-63.23455,0 -113.96117,50.72662 -113.96117,113.96117c0,77.13226 41.69311,79.21691 41.69311,129.24865l18.06702,-6.25397c14.59259,-4.8642 27.10052,-15.98236 32.6596,-30.57495l19.45679,-47.25219l40.99823,-20.15167l0,-41.69311c0,0 48.64196,-26.40564 48.64196,-71.57318c-20.84656,-17.37213 -57.67547,-25.71075 -87.55554,-25.71075z" fill="#000000"/>
   <g stroke="null" fill="#546E7A">
    <path stroke="null" d="m171.69067,115.53033c-4.16931,0 -6.94885,2.77954 -6.94885,6.94885l0,96.58904c0,4.16931 2.77954,6.94885 6.94885,6.94885s6.94885,-2.77954 6.94885,-6.94885l0,-96.58904c0,-4.16931 -2.77954,-6.94885 -6.94885,-6.94885z"/>
    <path stroke="null" d="m282.17741,322.60612c-54.89593,0 -71.57318,-34.04938 -72.26806,-35.43915c-1.38977,-3.47443 -5.55908,-4.8642 -9.03351,-3.47443c-3.47443,1.38977 -4.8642,5.55908 -3.47443,9.03351c0.69489,2.08466 20.84656,43.77777 84.77599,43.77777c4.16931,0 6.94885,-2.77954 6.94885,-6.94885s-3.47443,-6.94885 -6.94885,-6.94885z"/>
   </g>
   <circle stroke="null" r="13.89771" cy="330.24985" cx="282.8723" fill="#37474F"/>
   <circle stroke="null" r="48.64196" cy="260.76133" cx="171.69067" fill="#37474F"/>
   <circle stroke="null" r="27.7954" cy="260.76133" cx="171.69067" fill="#546E7A"/>
  </g>
 </g>

</svg>